<svg xmlns="http://www.w3.org/2000/svg" width="1200" height="630" viewBox="0 0 1200 630" role="img" aria-labelledby="title desc">
<title id="title">Where does your body end?</title><desc id="desc">A hand and a rake sit inside three different conceptual boundaries: skin, nearby sensory space, and tool-enabled reach.</desc>
<defs>
  <linearGradient id="paper" x1="0" y1="0" x2="1" y2="1"><stop stop-color="#f8f5eb"/><stop offset="1" stop-color="#eaf0e7"/></linearGradient>
  <radialGradient id="aura"><stop stop-color="#bed6c3" stop-opacity=".74"/><stop offset="1" stop-color="#bed6c3" stop-opacity="0"/></radialGradient>
  <pattern id="dots" width="22" height="22" patternUnits="userSpaceOnUse"><circle cx="2" cy="2" r="1" fill="#769b81" opacity=".26"/></pattern>
  <style>text{font-family:Arial,Helvetica,sans-serif;fill:#203b34}.serif{font-family:Georgia,serif}.eyebrow{font-size:19px;letter-spacing:4px;fill:#54775f}.small{font-size:18px}.label{font-size:21px;font-weight:700}.muted{fill:#597268}</style>
</defs><rect width="1200" height="630" fill="url(#paper)"/>
<rect x="604" y="0" width="596" height="630" fill="url(#dots)" opacity=".55"/>
<circle cx="860" cy="303" r="246" fill="url(#aura)"/>
<path d="M622 491 C707 528 808 522 875 450" fill="none" stroke="#b8c9ba" stroke-width="2"/>
<path d="M708 467 C787 409 827 361 857 316" fill="none" stroke="#54775f" stroke-width="43" stroke-linecap="round"/>
<path d="M707 467 C789 410 827 362 856 316" fill="none" stroke="#d8e3d6" stroke-width="31" stroke-linecap="round"/>
<path d="M846 334 Q822 302 840 280 Q856 263 872 279 L895 298" fill="none" stroke="#203b34" stroke-width="8" stroke-linecap="round"/>
<path d="M858 349 Q842 326 858 311 Q877 295 894 313" fill="none" stroke="#203b34" stroke-width="7" stroke-linecap="round"/>
<path d="M863 278 L1081 145" fill="none" stroke="#bc8167" stroke-width="13" stroke-linecap="round"/>
<path d="M1077 122 L1095 160 M1058 136 L1076 174 M1095 112 L1113 149" fill="none" stroke="#bc8167" stroke-width="8" stroke-linecap="round"/>
<path d="M894 370 C1035 359 1159 298 1134 162" fill="none" stroke="#537c86" stroke-width="3" stroke-dasharray="6 13" stroke-linecap="round"/>
<path d="M865 389 C970 418 1089 446 1167 422" fill="none" stroke="#b8c9ba" stroke-width="2"/>
<circle cx="866" cy="318" r="123" fill="none" stroke="#54775f" stroke-opacity=".38" stroke-width="2"/>
<circle cx="1090" cy="145" r="11" fill="#bc8167"/><circle cx="1090" cy="145" r="24" fill="none" stroke="#bc8167" stroke-opacity=".42"/>
<text x="719" y="565" font-size="19" letter-spacing="2" fill="#54775f">SKIN</text>
<text x="1030" y="519" font-size="19" letter-spacing="2" fill="#537c86">REACH</text>
<text class="eyebrow" x="68" y="82">NEURASOFT / FIELD NOTES</text>
<text class="serif" x="68" y="208" font-size="68">Where does</text>
<text class="serif" x="68" y="298" font-size="68">your body end?</text>
<path d="M69 332 H528" stroke="#bc8167" stroke-width="5"/>
<text x="69" y="386" font-size="25" fill="#54775f">The borders we use are not all skin.</text>
<text x="69" y="576" font-size="20">Neurasoft editorial · 27 September 2026</text>
</svg>